# xmcd
#
# Track frame offsets: 
#        150
#        15755
#        34678
#        45411
#        74128
#        92820
#        107218
#        123750
#        150232
#        169538
#
# Disc length: 2573 seconds
#
# Revision: 0
# Processed by: cddbd v1.5.2PL0 Copyright (c) Steve Scherf et al.
# Submitted via: ExactAudioCopyFreeDBPlugin 1.0
#
DISCID=6d0a0b0a
DTITLE=Сергей Данилов - Орден чёрного кота 
DYEAR=2000
DGENRE=Blues
TTITLE0=Запасной диван
TTITLE1=Майами-Бич
TTITLE2=Смерть Пегаса
TTITLE3=Blues ''E-dur''
TTITLE4=Жёлтая дорога
TTITLE5=Петербургские квартиры
TTITLE6=Дед да баба
TTITLE7=К друзьям
TTITLE8=Вниз по реке
TTITLE9=Так будет лучше
EXTD=
EXTT0=
EXTT1=
EXTT2=
EXTT3=
EXTT4=
EXTT5=
EXTT6=
EXTT7=
EXTT8=
EXTT9=
PLAYORDER=
